<?xml version="1.0" encoding="UTF-8"?>
<svg version="1.1" xmlns="http://www.w3.org/2000/svg" width="1024" height="1024">
	<path d="M0 0 C337.92 0 675.84 0 1024 0 C1024 337.92 1024 675.84 1024 1024 C686.08 1024 348.16 1024 0 1024 C0 686.08 0 348.16 0 0 Z " fill="#0A313B" transform="translate(0,0)"/>
	<path d="M0 0 C16.63647948 15.42384607 29.53997591 42.14032502 30.875 64.875 C30.93945312 65.87917969 31.00390625 66.88335937 31.0703125 67.91796875 C31.63883394 84.68935111 26.91234401 99.53511993 15.625 112.125 C7.16168757 121.14119931 -2.91721021 126.91886715 -14.125 131.875 C-14.785 131.875 -15.445 131.875 -16.125 131.875 C-16.125 132.535 -16.125 133.195 -16.125 133.875 C-2.38896683 135.76962527 11.25404807 136.47869016 23.125 128.1875 C36.13434473 117.3689181 41.84713071 103.78523054 43.5625 87.125 C43.67604284 85.70905397 43.7840493 84.29257649 43.875 82.875 C47.83426313 86.83426313 48.14708932 93.45928707 49.375 98.8125 C49.5325174 99.49416229 49.69003479 100.17582458 49.85232544 100.87814331 C52.36496414 111.82895694 54.39981634 122.62898671 54.875 133.875 C54.91206055 134.70225586 54.94912109 135.52951172 54.98730469 136.38183594 C55.70522145 155.38175189 53.79783214 173.45604065 45.875 190.875 C45.36066406 192.01582031 44.84632813 193.15664063 44.31640625 194.33203125 C36.23039796 210.67856599 22.45471008 222.5819464 5.875 229.875 C4.885 230.205 3.895 230.535 2.875 230.875 C12.37166778 234.4433587 22.58746098 233.88552821 31.875 229.875 C45.21383602 223.24575921 53.62288858 212.20622169 59.875 198.875 C60.535 198.875 61.195 198.875 61.875 198.875 C68.41702945 215.05608349 70.95580862 233.9477024 71.11328125 251.33203125 C71.12298447 252.22469193 71.13268768 253.1173526 71.14268494 254.0370636 C71.16756674 256.9205885 71.18021013 259.80387849 71.1875 262.6875 C71.19011841 263.67175964 71.19273682 264.65601929 71.19543457 265.67010498 C71.20002289 281.77543388 70.05786549 297.053858 66.875 312.875 C66.61500371 314.37570233 66.35821694 315.87696621 66.10546875 317.37890625 C59.66290905 352.95089245 43.09018424 390.06669367 18.875 416.875 C17.7280661 418.22823465 16.5820905 419.58228268 15.4375 420.9375 C8.12468161 429.21023489 0.27626788 436.81592109 -8.37109375 443.6796875 C-11.19931996 445.93424513 -13.93934777 448.27376109 -16.6875 450.625 C-29.69689786 461.46616489 -43.78421308 470.90054864 -58.125 479.875 C-58.83591797 480.32053223 -59.54683594 480.76606445 -60.27929688 481.22509766 C-87.35172585 498.12408241 -115.41100381 512.94739693 -144.3125 526.4375 C-189.39080616 547.49729502 -232.0280395 573.35331281 -268.125 607.875 C-268.99640625 608.69355469 -269.8678125 609.51210938 -270.765625 610.35546875 C-277.6308646 616.9724371 -283.45125799 624.23808403 -289.125 631.875 C-289.53137695 632.4205957 -289.93775391 632.96619141 -290.35644531 633.52832031 C-296.51539862 641.88435688 -301.43680253 650.63912324 -306.125 659.875 C-309.05155722 656.4863548 -310.39290476 652.82194269 -311.75 648.625 C-311.9665625 647.99464844 -312.183125 647.36429688 -312.40625 646.71484375 C-320.95980852 620.79016948 -315.16676775 586.03155325 -306.76171875 560.81640625 C-306.10835465 558.824247 -305.50197725 556.82259903 -304.90625 554.8125 C-297.19078662 528.90481882 -284.33142818 507.62486701 -267.125 486.875 C-266.31675781 485.89273437 -265.50851562 484.91046875 -264.67578125 483.8984375 C-255.87443959 473.29206939 -246.78357837 462.41983628 -236.15625 453.59375 C-234.04478057 451.80712202 -232.02973577 449.93270343 -230.01318359 448.0402832 C-223.61731323 442.05821472 -216.91918528 436.58444864 -209.95800781 431.27539062 C-208.13901844 429.88570988 -206.33111744 428.48247062 -204.5234375 427.078125 C-192.0990318 417.51437725 -179.08965187 408.05084635 -165.42114258 400.35205078 C-158.40660261 395.83977361 -154.86867629 382.70813043 -153.125 374.875 C-147.8848014 348.8938755 -158.08012894 322.82262303 -172.28515625 301.40234375 C-179.94305508 290.88289461 -189.23145734 282.18151022 -202.125 278.875 C-214.2204719 277.24500568 -224.12700828 281.23514509 -233.91015625 288.15234375 C-267.05800502 313.93400391 -287.18054779 357.7185982 -302.1875 395.875 C-302.46255371 396.57415527 -302.73760742 397.27331055 -303.02099609 397.99365234 C-307.13292325 408.78976014 -308.3036019 419.30725123 -308.3125 430.8125 C-308.32474609 431.64201172 -308.33699219 432.47152344 -308.34960938 433.32617188 C-308.37387754 443.73721329 -305.70154934 452.65315658 -302 462.3125 C-301.26387838 464.24704798 -300.53190432 466.18318079 -299.8046875 468.12109375 C-299.48226074 468.96341553 -299.15983398 469.8057373 -298.82763672 470.67358398 C-298.125 472.875 -298.125 472.875 -298.125 475.875 C-316.54457676 474.45810948 -333.05464021 464.19828954 -347.125 452.875 C-347.77210938 452.43800781 -348.41921875 452.00101563 -349.0859375 451.55078125 C-354.1294331 448.04493675 -354.89740604 443.56596548 -356.125 437.875 C-356.28742188 437.14200684 -356.44984375 436.40901367 -356.6171875 435.65380859 C-357.17681965 433.10555602 -357.71740251 430.55403623 -358.25 428 C-358.42096191 427.186521 -358.59192383 426.37304199 -358.76806641 425.53491211 C-361.41176585 412.23075167 -361.15809005 399.05250557 -360.92507744 385.55621147 C-360.83177593 379.72722255 -360.78109313 373.89780133 -360.72460938 368.06835938 C-360.65278076 360.6906207 -360.56805405 353.31400611 -360.42553711 345.93725586 C-360.31079168 339.93864993 -360.24671694 333.94129586 -360.21516609 327.94169807 C-360.19441306 325.67684382 -360.15596766 323.41206994 -360.09826469 321.14785576 C-359.68722499 304.48460164 -362.47159048 291.91220028 -372.92227173 278.58262634 C-374.93692529 275.72223338 -374.53059414 272.46424801 -374.48828125 269.09375 C-374.48973145 268.33234207 -374.49118164 267.57093414 -374.49267578 266.78645325 C-374.49142029 264.31556026 -374.46626287 261.8457159 -374.4375 259.375 C-374.4315683 258.5325473 -374.4256366 257.6900946 -374.41952515 256.82211304 C-374.02771279 202.32250901 -360.0313946 142.6226082 -323.125 100.875 C-322.29613281 99.9365625 -321.46726562 98.998125 -320.61328125 98.03125 C-310.22886809 86.5098573 -299.4823193 75.29724751 -287.125 65.875 C-286.56731934 65.44622559 -286.00963867 65.01745117 -285.43505859 64.57568359 C-266.65398261 50.20048587 -246.03393075 38.26600427 -223.125 31.875 C-222.14684326 31.58302734 -222.14684326 31.58302734 -221.14892578 31.28515625 C-210.15424448 28.0817547 -199.2585074 27.48190042 -187.875 27.4375 C-187.20598663 27.4313266 -186.53697327 27.4251532 -185.84768677 27.41879272 C-175.8609184 27.35952362 -166.7968553 28.57784527 -157.125 30.875 C-156.29597168 31.06827881 -155.46694336 31.26155762 -154.61279297 31.46069336 C-145.02683492 33.82333572 -136.60801327 37.40403128 -127.890625 41.953125 C-111.11322676 50.65693261 -91.62488975 55.91384149 -72.7578125 52.21484375 C-65.75913562 49.97565489 -59.7521167 46.02951013 -55.78125 39.75 C-52.57220251 33.51527916 -51.12026395 27.89820449 -52.125 20.875 C-55.91653388 10.77423387 -63.96186438 5.74442754 -73.3125 1.25 C-83.2074582 -2.99670302 -93.47109608 -6.44544338 -104.125 -8.125 C-103.10056678 -11.06712223 -102.36265218 -11.99633249 -99.578125 -13.50390625 C-65.96004318 -25.92619746 -27.75141677 -24.57083878 0 0 Z " fill="#EBEBEB" transform="translate(662.125,97.125)"/>
	<path d="M0 0 C0.33 0 0.66 0 1 0 C6.05855835 40.59184628 0.68340508 83.80594013 -25.0625 117 C-26.69360145 119.01203266 -28.33897076 121.0126024 -30 123 C-31.17949219 124.46373047 -31.17949219 124.46373047 -32.3828125 125.95703125 C-36.79093211 131.41861673 -41.27455206 136.80957664 -46 142 C-46.53238281 142.598125 -47.06476563 143.19625 -47.61328125 143.8125 C-62.50992772 159.66702396 -82.57572604 171.51124427 -101.60351562 181.71142578 C-104.01983936 183.01066749 -106.42385264 184.33095953 -108.828125 185.65234375 C-130.61950766 197.49158829 -153.6144342 206.43738471 -176.89453125 214.87255859 C-214.02673065 228.35341526 -249.40610477 244.84744558 -278.703125 271.89453125 C-280.20869764 273.2746395 -281.73963579 274.62768411 -283.296875 275.94921875 C-289.31958153 281.0685193 -294.16417992 286.76212792 -299 293 C-299.7425 293.92683594 -300.485 294.85367187 -301.25 295.80859375 C-309.26632474 306.0655926 -315.24585882 317.36241109 -321 329 C-325.69699341 324.30300659 -325.27013835 316.58218672 -325.33007812 310.32397461 C-325.14929648 277.42422543 -315.69216431 242.52484179 -294 217 C-293.36449219 216.16726563 -292.72898437 215.33453125 -292.07421875 214.4765625 C-281.85718271 201.26385181 -269.32964493 189.02780628 -256 179 C-255.37174316 178.51176758 -254.74348633 178.02353516 -254.09619141 177.52050781 C-221.53721478 152.22451347 -184.28831666 134.11073598 -145.5 120.5625 C-93.72643589 102.44216922 -32.49481234 71.33728122 -7 20 C-4.17110792 13.4906616 -1.75942278 6.87774359 0 0 Z " fill="#CCCCCC" transform="translate(695,528)"/>
	<path d="M0 0 C0.33 0 0.66 0 1 0 C7.42706674 27.83032091 -0.29705055 60.94122756 -15 85 C-18.02400353 89.58873421 -21.46971079 93.79663489 -25 98 C-25.49661133 98.60730957 -25.99322266 99.21461914 -26.50488281 99.84033203 C-57.24589196 137.41800354 -104.42189942 155.00309695 -149.1796875 170.0859375 C-192.87704088 184.87497549 -237.61535569 209.04007905 -259.125 251.9375 C-259.76110675 253.28648501 -260.39129791 254.63842954 -261 256 C-261.66 256 -262.32 256 -263 256 C-270.50180398 230.04375823 -260.45820759 202.54866463 -248.01464844 179.77636719 C-233.76228792 154.82444824 -208.3402082 136.24870772 -184 122 C-183.2147998 121.53625977 -182.42959961 121.07251953 -181.62060547 120.59472656 C-160.41389929 108.19135123 -137.86435743 99.51324819 -114.64816284 91.75610352 C-101.65511518 87.39842259 -89.26478053 82.12013217 -77 76 C-76.11973145 75.56268555 -75.23946289 75.12537109 -74.33251953 74.67480469 C-45.23434321 60.09577453 -13.49333013 38.72416632 -1.83984375 6.82421875 C-1.15079431 4.5583678 -0.52165217 2.30939765 0 0 Z " fill="#C2C2C2" transform="translate(660,687)"/>
	<path d="M0 0 C1.38147399 2.76294798 0.66041165 4.08827061 -0.09228516 7.06616211 C-0.35651276 8.12584702 -0.62074036 9.18553192 -0.89297485 10.27732849 C-1.18868378 11.43233353 -1.4843927 12.58733856 -1.7890625 13.77734375 C-2.23951431 15.56997398 -2.23951431 15.56997398 -2.69906616 17.39881897 C-3.50422398 20.59698296 -4.31556416 23.79345269 -5.12976074 26.98931885 C-5.93711596 30.1653074 -6.73557541 33.34353118 -7.53515625 36.52148438 C-10.94226779 50.03587529 -14.41450136 63.53182649 -18 77 C-18.66 77 -19.32 77 -20 77 C-20.7158726 70.54086104 -21.42751383 64.08126591 -22.13623047 57.62133789 C-22.37777111 55.42429067 -22.62027632 53.22734926 -22.86376953 51.03051758 C-23.21380854 47.87087971 -23.56036475 44.71087619 -23.90625 41.55078125 C-24.0156189 40.57039383 -24.12498779 39.59000641 -24.2376709 38.57991028 C-24.38782654 37.19904488 -24.38782654 37.19904488 -24.54101562 35.7902832 C-24.62984009 34.9842012 -24.71866455 34.1781192 -24.81018066 33.34761047 C-25.36048033 26.54172183 -25.36048033 26.54172183 -23.59375 23.88671875 C-22.55734375 22.79810547 -22.55734375 22.79810547 -21.5 21.6875 C-20.69691406 20.83800781 -19.89382813 19.98851562 -19.06640625 19.11328125 C-18.04695935 18.07287964 -17.0244763 17.03544957 -16 16 C-15.34112793 15.33274902 -14.68225586 14.66549805 -14.00341797 13.97802734 C-9.36271021 9.29123718 -4.69178117 4.63562838 0 0 Z " fill="#113B46" transform="translate(347,296)"/>
</svg>
