<?xml version="1.0" encoding="UTF-8"?>
<svg version="1.1" xmlns="http://www.w3.org/2000/svg" width="1024" height="1024">
	<path d="M0 0 C18.90925641 16.26798979 31.1857833 40.69892063 34.7109375 65.375 C35.90223384 84.73898046 32.60955648 100.39686511 19.7109375 115.375 C19.21207031 115.96925781 18.71320313 116.56351563 18.19921875 117.17578125 C10.41064214 125.70986393 -0.89700883 131.60998 -11.2890625 136.375 C1.23010546 139.71344479 13.48998821 139.55221073 25.0625 133.0546875 C37.46454933 124.29184956 44.12316526 111.1098524 46.7109375 96.375 C47.16713637 92.71199147 47.50057184 89.0600261 47.7109375 85.375 C62.05281375 106.88781437 61.38109602 149.44463954 56.6875 174 C53.41385117 189.3990272 47.13784576 202.52449172 36.7109375 214.375 C35.69386719 215.53515625 35.69386719 215.53515625 34.65625 216.71875 C27.07820975 224.82419965 17.90980633 230.18755511 7.7109375 234.375 C16.86165401 237.79455026 26.08113233 237.43858907 35.0859375 233.6953125 C49.06580993 226.66376952 56.55388914 215.75639627 63.7109375 202.375 C64.3709375 202.375 65.0309375 202.375 65.7109375 202.375 C68.53244786 210.32925792 70.39559538 218.27168103 71.8984375 226.5625 C72.06504883 227.47596191 72.23166016 228.38942383 72.40332031 229.33056641 C77.40155403 257.83691988 76.52701889 289.09681115 70.7109375 317.375 C70.50194824 318.39609863 70.29295898 319.41719727 70.07763672 320.46923828 C62.66038182 355.35533827 48.48902662 391.3448454 24.7109375 418.375 C24.01613281 419.179375 23.32132813 419.98375 22.60546875 420.8125 C13.11296714 431.60179145 3.01051998 441.49244051 -8.2890625 450.375 C-9.43137352 451.30522507 -10.5719038 452.23763982 -11.7109375 453.171875 C-52.14950631 486.20924907 -98.98756573 510.68234354 -145.9765625 532.9375 C-170.77348849 544.71203195 -194.70999976 557.73268863 -217.2890625 573.375 C-218.16570557 573.98142334 -218.16570557 573.98142334 -219.06005859 574.60009766 C-230.92084459 582.84610566 -242.42040607 591.54029816 -253.05859375 601.328125 C-255.12202524 603.22171187 -257.22480831 605.05326164 -259.3515625 606.875 C-267.51846117 614.02513619 -274.59694203 621.83877701 -281.2890625 630.375 C-282.04316406 631.32375 -282.79726563 632.2725 -283.57421875 633.25 C-291.08016956 642.93177531 -296.99373085 653.34305906 -302.2890625 664.375 C-305.59096376 660.7158755 -306.61555141 656.69946708 -307.9140625 652.0625 C-308.130625 651.32837891 -308.3471875 650.59425781 -308.5703125 649.83789062 C-319.6476215 611.3066337 -306.98550474 560.84635507 -288.58203125 526.37890625 C-276.76329861 505.24206369 -260.96448107 486.59846799 -244.5390625 468.9375 C-243.93747314 468.28740967 -243.33588379 467.63731934 -242.71606445 466.9675293 C-239.051209 463.06726561 -235.22486513 459.47899411 -231.1640625 455.99389648 C-228.59574287 453.77637989 -226.13682449 451.44811357 -223.6640625 449.125 C-217.1786413 443.13185444 -210.32653762 437.70182202 -203.2890625 432.375 C-202.57862793 431.83472168 -201.86819336 431.29444336 -201.13623047 430.73779297 C-192.09775856 423.88904387 -182.90964348 417.32701371 -173.4140625 411.125 C-172.57601074 410.57602051 -171.73795898 410.02704102 -170.87451172 409.46142578 C-170.0857666 408.95337402 -169.29702148 408.44532227 -168.484375 407.921875 C-167.79359863 407.47682617 -167.10282227 407.03177734 -166.39111328 406.57324219 C-164.2890625 405.375 -164.2890625 405.375 -161.59936523 404.36181641 C-159.07555364 403.57925117 -159.07555364 403.57925117 -158.12890625 401.0390625 C-157.85175781 400.15992188 -157.57460938 399.28078125 -157.2890625 398.375 C-156.4886564 396.82701989 -155.67576998 395.28543948 -154.8515625 393.75 C-145.9623102 376.15504928 -146.69350582 355.85309924 -152.47265625 337.3984375 C-157.41596808 322.89152311 -164.63209936 307.51043904 -175.2890625 296.375 C-175.90007812 295.735625 -176.51109375 295.09625 -177.140625 294.4375 C-185.21733069 286.7264065 -195.4896283 281.91553592 -206.70703125 282.1015625 C-224.91647214 284.02994504 -239.34943369 297.8955233 -250.3515625 311.5 C-260.83291672 324.82427473 -269.39430406 339.40639827 -277.2890625 354.375 C-277.75957031 355.26541992 -278.23007812 356.15583984 -278.71484375 357.07324219 C-303.11524989 403.27110326 -303.11524989 403.27110326 -302.421875 454.2265625 C-299.58301785 462.11880926 -299.58301785 462.11880926 -296.62670898 469.9675293 C-296.32579346 470.75297119 -296.02487793 471.53841309 -295.71484375 472.34765625 C-295.44067627 473.05156494 -295.16650879 473.75547363 -294.8840332 474.48071289 C-294.2890625 476.375 -294.2890625 476.375 -294.2890625 479.375 C-311.88384457 478.48035006 -328.70755359 467.95828454 -342.2890625 457.375 C-342.97871094 456.91996094 -343.66835938 456.46492188 -344.37890625 455.99609375 C-353.24592763 449.71606804 -353.81444272 436.4955823 -355.67578125 426.4921875 C-357.05127396 417.91636184 -357.43095898 409.36590231 -357.32324219 400.69384766 C-357.31535675 399.68899826 -357.30747131 398.68414886 -357.29934692 397.64884949 C-357.28227407 395.48713109 -357.26308846 393.32542851 -357.24196625 391.16374588 C-357.1995313 386.54852553 -357.17635551 381.93326765 -357.15193558 377.31792259 C-357.10640838 368.74920582 -357.05329348 360.18071538 -356.96679688 351.61230469 C-356.90712789 345.62792406 -356.87236211 339.64383409 -356.85361481 333.65919113 C-356.84194102 331.39234291 -356.82123827 329.12552105 -356.79097748 326.85884476 C-356.59313648 311.65900271 -357.10874001 299.69241889 -366.55859375 287.12890625 C-371.56682475 279.27329632 -371.32445173 272.31480643 -370.9765625 263.3125 C-370.94234708 261.71911534 -370.91006782 260.12568803 -370.87963867 258.53222656 C-369.66905424 207.77229648 -357.59893251 151.91637007 -325.2890625 111.375 C-324.87172852 110.84487305 -324.45439453 110.31474609 -324.02441406 109.76855469 C-310.87208948 93.25098733 -295.48337927 77.65966505 -278.2890625 65.375 C-277.48662109 64.78936279 -277.48662109 64.78936279 -276.66796875 64.19189453 C-255.2799084 48.59322821 -231.44070548 37.07213976 -205.2890625 32.375 C-204.28617188 32.189375 -203.28328125 32.00375 -202.25 31.8125 C-185.79680287 29.99518434 -168.36984404 30.2581855 -152.2890625 34.375 C-151.04511719 34.68050781 -149.80117188 34.98601562 -148.51953125 35.30078125 C-139.09123223 37.83381089 -130.61065963 42.02319184 -121.88647461 46.34326172 C-105.59561598 54.28598747 -85.83244585 60.0369365 -67.7265625 55.25 C-59.52336856 52.25053283 -54.14772824 47.13919786 -50.2890625 39.375 C-47.4221094 32.68544276 -47.74523236 27.05347847 -50.2421875 20.3671875 C-56.75538376 7.97267222 -72.47155469 3.14717651 -84.9765625 -0.8125 C-90.04433373 -2.32061987 -95.10875614 -3.57137837 -100.2890625 -4.625 C-99.26462928 -7.56712223 -98.52671468 -8.49633249 -95.7421875 -10.00390625 C-64.52996112 -21.53720453 -26.95211552 -22.09345464 0 0 Z M-312.2890625 203.375 C-322.44275252 213.29838154 -322.44275252 213.29838154 -331.95703125 223.82421875 C-333.2890625 225.375 -333.2890625 225.375 -334.88427734 226.59399414 C-336.97926629 229.25004982 -336.43000477 231.10276604 -336.09765625 234.421875 C-335.97890137 235.67419922 -335.86014648 236.92652344 -335.73779297 238.21679688 C-335.58874684 239.60292175 -335.43915122 240.98898763 -335.2890625 242.375 C-335.14241427 243.83909511 -334.99676564 245.30329065 -334.85205078 246.76757812 C-334.46559015 250.60643766 -334.0471548 254.44099438 -333.61450195 258.27490234 C-333.34732202 260.66290052 -333.09266074 263.05205603 -332.83789062 265.44140625 C-332.6674301 266.96623137 -332.49623469 268.49097456 -332.32421875 270.015625 C-332.25018326 270.72696594 -332.17614777 271.43830688 -332.09986877 272.17120361 C-331.69244002 276.20914702 -331.69244002 276.20914702 -329.2890625 279.375 C-326.91379787 270.05923575 -324.54868583 260.74097058 -322.19652462 251.41934586 C-321.1040231 247.09110327 -320.00803415 242.76380657 -318.90405273 238.43847656 C-317.83894346 234.26490949 -316.78302514 230.08911593 -315.73346138 225.91161346 C-315.33125399 224.31757478 -314.92573184 222.72436871 -314.51685905 221.13202667 C-313.94508981 218.90295144 -313.38513817 216.67121691 -312.82788086 214.43847656 C-312.34489784 212.53319183 -312.34489784 212.53319183 -311.85215759 210.5894165 C-311.33776677 207.65302728 -311.24164637 206.1131711 -312.2890625 203.375 Z " fill="#EAEBEB" transform="translate(658.2890625,93.625)"/>
	<path d="M0 0 C0.33 0 0.66 0 1 0 C5.7127153 41.82534829 -0.12219808 84.60941683 -26.98046875 118.5703125 C-29.1257007 121.15122985 -31.26924871 123.72771575 -33.4921875 126.2421875 C-35.30312557 128.35338473 -36.98464525 130.55076654 -38.6875 132.75 C-72.66886214 175.21064343 -131.00592185 197.85788377 -180.80325317 215.50366211 C-217.37842501 228.48237436 -251.91973445 245.770519 -280.34375 272.5546875 C-283 275 -283 275 -285.6484375 277.109375 C-289.26063847 280.01353658 -292.0524359 283.43743662 -295 287 C-295.61584961 287.73935791 -295.61584961 287.73935791 -296.24414062 288.49365234 C-306.33938229 300.69145349 -314.21318936 313.70777523 -321 328 C-328.98977428 316.01533859 -326.12841752 295.2932212 -323.56396484 281.92749023 C-321.08108669 270.57262851 -317.5413328 259.69069457 -313 249 C-312.63777344 248.14132324 -312.27554687 247.28264648 -311.90234375 246.39794922 C-303.95359884 227.89017241 -292.96197307 213.35622547 -279 199 C-278.49968262 198.47921875 -277.99936523 197.9584375 -277.48388672 197.421875 C-270.7286879 190.40393781 -263.73661087 183.94049119 -256 178 C-255.36304199 177.50306641 -254.72608398 177.00613281 -254.06982422 176.49414062 C-222.61633505 152.06679622 -186.09020018 133.16373139 -148.3125 120.6875 C-112.335268 108.73860383 -76.11193549 90.37978285 -47 66 C-46.3925293 65.49404297 -45.78505859 64.98808594 -45.15917969 64.46679688 C-43.28711146 62.90205419 -41.42265351 61.3288838 -39.5625 59.75 C-39.00715576 59.27884766 -38.45181152 58.80769531 -37.87963867 58.32226562 C-19.50897417 42.49794792 -6.84101902 23.18710773 0 0 Z " fill="#CCCCCC" transform="translate(695,529)"/>
	<path d="M0 0 C0.33 0 0.66 0 1 0 C4.32095528 17.87332452 2.98158228 37.56255337 -2 55 C-2.31348389 56.10408203 -2.31348389 56.10408203 -2.63330078 57.23046875 C-7.31723472 73.08918139 -15.11102752 86.59041659 -26 99 C-26.92931611 100.12991444 -27.85491327 101.26289486 -28.77734375 102.3984375 C-59.0791278 139.37509007 -109.02745201 157.33718227 -153.0625 171.625 C-164.44035573 175.32829023 -175.27438276 179.70107739 -186 185 C-186.67949707 185.33354492 -187.35899414 185.66708984 -188.05908203 186.01074219 C-201.67232938 192.77195473 -214.46750121 201.08352015 -226 211 C-226.95390625 211.81984375 -227.9078125 212.6396875 -228.890625 213.484375 C-243.16032334 226.01897375 -253.02438575 240.30017925 -262 257 C-268.89783578 244.12403987 -265.48612495 225.55327626 -261.64160156 212.11572266 C-248.60617824 169.13057103 -217.2770809 140.61785563 -178.99951172 119.12304688 C-177.72412912 118.40671477 -176.45194526 117.68463642 -175.18408203 116.95507812 C-158.39115501 107.2999685 -140.24266586 100.65330786 -121.9375 94.5 C-93.81054348 85.02659287 -65.7909251 73.01593442 -42 55 C-41.06285156 54.29230469 -40.12570312 53.58460938 -39.16015625 52.85546875 C-21.58657141 39.12695178 -5.04760397 22.58138617 0 0 Z " fill="#C2C2C2" transform="translate(660,687)"/>
</svg>
